# xmcd
#
# Track frame offsets: 
#        150
#        16887
#        32939
#        42369
#        56871
#        67953
#        79700
#        91071
#        104940
#        119227
#        134837
#        151422
#        170044
#        183619
#        198196
#        213197
#        235598
#        249122
#        259491
#        272046
#        285618
#        301722
#        312763
#        326075
#
# Disc length: 4555 seconds
#
# Revision: 4
# Processed by: cddbd v1.5.2PL0 Copyright (c) Steve Scherf et al.
# Submitted via: ExactAudioCopy v1.1
#
DISCID=6211c918
DTITLE=Linda Ronstadt - The Collection [CD1]
DYEAR=2011
DGENRE=Vocal
TTITLE0=You're No Good
TTITLE1=Linda Ronstadt and Aaron Neville - Don't Know Much
TTITLE2=When Will I Be Loved
TTITLE3=The Tracks of My Tears
TTITLE4=It's So Easy
TTITLE5=Different Drum
TTITLE6=That'll Be the Day
TTITLE7=Carmelita
TTITLE8=Just One Look
TTITLE9=It Doesn't  Matter Anymore
TTITLE10=Poor Poor Pitiful Me
TTITLE11=Hey Mister That's Me Up On the Jukebox
TTITLE12=Back in the USA
TTITLE13=Hurt So Bad
TTITLE14=Ooh Baby Baby
TTITLE15=Blue Train, The
TTITLE16=I Will Always Love You
TTITLE17=How Do I Make You
TTITLE18=Love Is a Rose
TTITLE19=Tumbling Dice
TTITLE20=Desperado
TTITLE21=Silver Threads and Golden Needles
TTITLE22=Roll Um Easy
TTITLE23=Alison
EXTD=YEAR: 2011
EXTT0=
EXTT1=
EXTT2=
EXTT3=
EXTT4=
EXTT5=
EXTT6=
EXTT7=
EXTT8=
EXTT9=
EXTT10=
EXTT11=
EXTT12=
EXTT13=
EXTT14=
EXTT15=
EXTT16=
EXTT17=
EXTT18=
EXTT19=
EXTT20=
EXTT21=
EXTT22=
EXTT23=
PLAYORDER=
